# xmcd CD database file
#
# Track frame offsets:
#	150
#	13290
#	33480
#	57607
#	76705
#	111855
#	139662
#	168827
#	188377
#	224920
#	245037
#
# Disc length: 3461 seconds
#
# Revision: 0
# Processed by: cddbd v1.5.2PL0 Copyright (c) Steve Scherf et al.
# Submitted via: CDex 1.70beta2
#
DISCID=9a0d830b
DTITLE=Varios - Jazz en la Costa CD2
DYEAR=1998
DGENRE=Jazz
TTITLE0=Ignacio Olmedo_Summertime
TTITLE1=The Missing Stompers_Hole in the pocket
TTITLE2=Kiko Aguado Trío_Pótipon
TTITLE3=Mais que nada_Flor de Lis
TTITLE4=Henry Vincent_Destello de luces
TTITLE5=Celia Mur_That´s all
TTITLE6=Fernando Wilhelmi Quintet_Sol
TTITLE7=Blues de Garrafa_Don´t advantages of me
TTITLE8=Carlos Martín Trío_Footprints
TTITLE9=La Blues Band de Granada_La Pensión del cojo
TTITLE10=La Big Band de Santa Fé_New York, New York
EXTD=YEAR: 1998
EXTT0=
EXTT1=
EXTT2=
EXTT3=
EXTT4=
EXTT5=
EXTT6=
EXTT7=
EXTT8=
EXTT9=
EXTT10=
PLAYORDER=
